<svg width="107" height="89" viewBox="0 0 107 89" fill="none" xmlns="http://www.w3.org/2000/svg">
<path d="M80.25 5.5625H26.75C15.6698 5.5625 6.6875 13.0337 6.6875 22.25V66.75C6.6875 75.9663 15.6698 83.4375 26.75 83.4375H80.25C91.3302 83.4375 100.312 75.9663 100.312 66.75V22.25C100.312 13.0337 91.3302 5.5625 80.25 5.5625Z" fill="url(#paint0_radial_21_56)"/>
<path d="M80.25 5.5625H26.75C15.6698 5.5625 6.6875 13.0337 6.6875 22.25V66.75C6.6875 75.9663 15.6698 83.4375 26.75 83.4375H80.25C91.3302 83.4375 100.312 75.9663 100.312 66.75V22.25C100.312 13.0337 91.3302 5.5625 80.25 5.5625Z" fill="url(#paint1_radial_21_56)"/>
<path d="M80.25 5.5625H26.75C15.6698 5.5625 6.6875 13.0337 6.6875 22.25V66.75C6.6875 75.9663 15.6698 83.4375 26.75 83.4375H80.25C91.3302 83.4375 100.312 75.9663 100.312 66.75V22.25C100.312 13.0337 91.3302 5.5625 80.25 5.5625Z" fill="url(#paint2_radial_21_56)"/>
<path d="M76.9062 29.2031C76.9062 31.5071 74.6606 33.375 71.8906 33.375C69.1207 33.375 66.875 31.5071 66.875 29.2031C66.875 26.8991 69.1207 25.0312 71.8906 25.0312C74.6606 25.0312 76.9062 26.8991 76.9062 29.2031Z" fill="white"/>
<path fill-rule="evenodd" clip-rule="evenodd" d="M53.5 58.4062C62.7334 58.4062 70.2188 52.1801 70.2188 44.5C70.2188 36.8199 62.7334 30.5938 53.5 30.5938C44.2666 30.5938 36.7812 36.8199 36.7812 44.5C36.7812 52.1801 44.2666 58.4062 53.5 58.4062ZM53.5 52.8438C59.0403 52.8438 63.5312 49.1083 63.5312 44.5C63.5312 39.8917 59.0403 36.1562 53.5 36.1562C47.9597 36.1562 43.4688 39.8917 43.4688 44.5C43.4688 49.1083 47.9597 52.8438 53.5 52.8438Z" fill="white"/>
<path fill-rule="evenodd" clip-rule="evenodd" d="M20.0625 43.3875C20.0625 34.0417 20.0625 29.3686 22.2492 25.799C24.1726 22.6591 27.2418 20.1062 31.0168 18.5063C35.3083 16.6875 40.9265 16.6875 52.1625 16.6875H54.8375C66.0735 16.6875 71.6917 16.6875 75.983 18.5063C79.7581 20.1062 82.8274 22.6591 84.7507 25.799C86.9375 29.3686 86.9375 34.0417 86.9375 43.3875V45.6125C86.9375 54.9583 86.9375 59.6314 84.7507 63.2008C82.8274 66.3409 79.7581 68.8938 75.983 70.4936C71.6917 72.3125 66.0735 72.3125 54.8375 72.3125H52.1625C40.9265 72.3125 35.3083 72.3125 31.0168 70.4936C27.2418 68.8938 24.1726 66.3409 22.2492 63.2008C20.0625 59.6314 20.0625 54.9583 20.0625 45.6125V43.3875ZM52.1625 22.25H54.8375C60.566 22.25 64.4598 22.2543 67.4699 22.4589C70.402 22.6581 71.9013 23.0193 72.9472 23.4625C75.4638 24.5292 77.5098 26.2311 78.7921 28.3243C79.3251 29.1942 79.7595 30.4413 79.9989 32.8802C80.2447 35.3839 80.25 38.6227 80.25 43.3875V45.6125C80.25 50.3773 80.2447 53.6161 79.9989 56.1198C79.7595 58.5587 79.3251 59.8058 78.7921 60.6757C77.5098 62.7689 75.4638 64.4708 72.9472 65.5374C71.9013 65.9807 70.402 66.342 67.4699 66.5411C64.4598 66.7456 60.566 66.75 54.8375 66.75H52.1625C46.434 66.75 42.5402 66.7456 39.5301 66.5411C36.598 66.342 35.0987 65.9807 34.0528 65.5374C31.5362 64.4708 29.4901 62.7689 28.2078 60.6757C27.6748 59.8058 27.2407 58.5587 27.0011 56.1198C26.7552 53.6161 26.75 50.3773 26.75 45.6125V43.3875C26.75 38.6227 26.7552 35.3839 27.0011 32.8802C27.2407 30.4413 27.6748 29.1942 28.2078 28.3243C29.4901 26.2311 31.5362 24.5292 34.0528 23.4625C35.0987 23.0193 36.598 22.6581 39.5301 22.4589C42.5402 22.2543 46.434 22.25 52.1625 22.25Z" fill="white"/>
<defs>
<radialGradient id="paint0_radial_21_56" cx="0" cy="0" r="1" gradientUnits="userSpaceOnUse" gradientTransform="translate(40.125 63.9688) rotate(-50.3031) scale(75.908 79.7873)">
<stop stop-color="#B13589"/>
<stop offset="0.79309" stop-color="#C62F94"/>
<stop offset="1" stop-color="#8A3AC8"/>
</radialGradient>
<radialGradient id="paint1_radial_21_56" cx="0" cy="0" r="1" gradientUnits="userSpaceOnUse" gradientTransform="translate(36.7813 86.2188) rotate(-60.8761) scale(65.2673 72.7398)">
<stop stop-color="#E0E8B7"/>
<stop offset="0.444662" stop-color="#FB8A2E"/>
<stop offset="0.71474" stop-color="#E2425C"/>
<stop offset="1" stop-color="#E2425C" stop-opacity="0"/>
</radialGradient>
<radialGradient id="paint2_radial_21_56" cx="0" cy="0" r="1" gradientUnits="userSpaceOnUse" gradientTransform="translate(1.67188 8.34375) rotate(-6.7764) scale(129.64 23.2071)">
<stop offset="0.156701" stop-color="#406ADC"/>
<stop offset="0.467799" stop-color="#6A45BE"/>
<stop offset="1" stop-color="#6A45BE" stop-opacity="0"/>
</radialGradient>
</defs>
</svg>
