<svg width="513" height="512" viewBox="0 0 513 512" fill="none" xmlns="http://www.w3.org/2000/svg">
<g clip-path="url(#clip0_21_38)">
<path d="M435.7 0H77.3C34.8845 0 0.5 34.3845 0.5 76.8V435.2C0.5 477.615 34.8845 512 77.3 512H435.7C478.115 512 512.5 477.615 512.5 435.2V76.8C512.5 34.3845 478.115 0 435.7 0Z" fill="#25D366"/>
<path d="M123.5 393L137.5 328C119.506 299.618 112.486 265.646 117.758 232.457C123.03 199.268 140.232 169.143 166.135 147.735C192.038 126.326 224.863 115.105 258.451 116.177C292.039 117.249 324.082 130.54 348.567 153.556C373.053 176.573 388.298 207.733 391.444 241.19C394.589 274.648 385.418 308.104 365.651 335.28C345.884 362.457 316.88 381.487 284.08 388.8C251.28 396.113 216.939 391.206 187.5 375L123.5 393Z" fill="#25D366" stroke="white" stroke-width="26"/>
<path d="M308.5 273C305.5 271 302.5 270 299.5 274L287.5 290C284.5 292 282.5 293 278.5 291C263.5 283 242.5 274 224.5 244C223.5 240 225.5 238 227.5 236L236.5 222C238.5 220 237.5 218 236.5 216L224.5 187C221.5 179 218.5 180 215.5 180H207.5C205.5 180 201.5 181 197.5 185C175.5 207 184.5 238 200.5 258C203.5 262 223.5 298 266.5 317C298.5 331 305.5 329 314.5 327C325.5 326 336.5 317 341.5 308C342.5 305 347.5 292 343.5 290" fill="white"/>
</g>
<defs>
<clipPath id="clip0_21_38">
<rect width="512" height="512" fill="white" transform="translate(0.5)"/>
</clipPath>
</defs>
</svg>
