<svg width="60" height="55" viewBox="0 0 60 55" fill="none" xmlns="http://www.w3.org/2000/svg">
<g clip-path="url(#clip0_21_26)">
<path fill-rule="evenodd" clip-rule="evenodd" d="M29.9913 0C13.4528 0 0 12.3352 0 27.4998C0 33.5138 2.1158 39.0913 5.71251 43.6184L1.97449 53.8356L13.5056 50.4574C18.2482 53.3351 23.908 55 30.0087 55C46.5472 55 60 42.6643 60 27.5002C60 12.3357 46.5472 0.000454585 30.0087 0.000454585L29.9913 0ZM21.6161 13.9687C21.0344 12.6916 20.5935 12.6432 19.7122 12.6104C19.4122 12.5944 19.0778 12.5784 18.707 12.5784C17.5606 12.5784 16.3618 12.8855 15.6388 13.5644C14.7575 14.3889 12.571 16.3125 12.571 20.2574C12.571 24.2023 15.7095 28.0176 16.1324 28.5515C16.5733 29.0844 22.251 37.2972 31.0666 40.6444C37.9604 43.2634 40.0061 43.0207 41.5751 42.7136C43.8671 42.261 46.7413 40.7083 47.4643 38.8335C48.1873 36.9578 48.1873 35.3572 47.9753 35.0177C47.7638 34.6782 47.1816 34.4848 46.3004 34.0801C45.4191 33.6758 41.1342 31.7358 40.3231 31.4771C39.5294 31.2024 38.7716 31.2996 38.1725 32.0757C37.326 33.1589 36.4975 34.2585 35.8273 34.921C35.2983 35.4384 34.4339 35.5032 33.7114 35.228C32.7416 34.8566 30.0266 33.9829 26.6763 31.2507C24.0842 29.1332 22.3212 26.4983 21.8102 25.7062C21.2986 24.8981 21.7573 24.4286 22.1624 23.9924C22.6033 23.491 23.0263 23.1356 23.4672 22.6665C23.9081 22.1979 24.1549 21.9552 24.437 21.4054C24.7371 20.872 24.5251 20.3222 24.3136 19.9179C24.1021 19.5137 22.3391 15.5688 21.6161 13.9687Z" fill="#67C15E"/>
</g>
<defs>
<clipPath id="clip0_21_26">
<rect width="60" height="55" fill="white"/>
</clipPath>
</defs>
</svg>
